<svg width="195" height="520" viewBox="0 0 195 435" fill="none" xmlns="http://www.w3.org/2000/svg">
<g clip-path="url(#clip0_16_283)">
<path d="M174.447 12.3458C174.533 13.1645 173.778 15.1088 172.438 17.5079C169.873 22.1273 169.601 22.7137 170.259 22.596C170.57 22.5078 172.268 21.6848 174.031 20.7596C175.795 19.8344 177.426 19.1135 177.655 19.1531C177.892 19.2348 177.795 19.6078 177.281 20.3998C176.517 21.5752 176.501 21.6007 171.636 23.2726C170.466 23.6753 169.214 24.3155 168.839 24.7256C168.438 25.1192 167.72 26.6151 167.138 28.1263C165.853 31.615 164.774 33.2757 163.753 33.4484C163.011 33.584 163.002 33.5419 163.278 32.5583C163.423 31.9988 164.316 30.2895 165.202 28.7578C167.123 25.4644 167.339 24.4054 166.352 22.4565C165.556 20.8856 164.624 16.3922 164.8 14.8351C164.89 13.9129 164.964 13.743 165.463 13.7032C166.366 13.5996 166.815 14.4731 167.24 17.5105C167.655 20.3958 167.895 21.424 168.16 21.6322C168.364 21.7649 169.153 19.8794 170.081 16.8852C171.254 13.1781 172.96 10.9437 174.058 11.6574C174.237 11.7736 174.393 12.0929 174.447 12.3458Z" fill="black" fill-opacity="0.1"/>
<path d="M199.928 -4.83989C200.013 -4.02115 199.259 -2.07689 197.918 0.322247C195.353 4.94166 195.081 5.52802 195.739 5.41034C196.051 5.32213 197.748 4.49911 199.512 3.5739C201.276 2.64868 202.907 1.92787 203.135 1.96741C203.373 2.0491 203.276 2.4221 202.761 3.21417C201.998 4.38949 201.981 4.41504 197.116 6.08697C195.946 6.48962 194.695 7.12987 194.319 7.53998C193.918 7.93349 193.201 9.42941 192.619 10.9406C191.333 14.4293 190.255 16.0901 189.234 16.2628C188.492 16.3983 188.483 16.3562 188.759 15.3726C188.904 14.8131 189.797 13.1038 190.683 11.5721C192.604 8.27869 192.82 7.21974 191.833 5.2708C191.037 3.6999 190.105 -0.793465 190.281 -2.35056C190.371 -3.2728 190.445 -3.4427 190.943 -3.48242C191.846 -3.58611 192.296 -2.71254 192.721 0.324814C193.136 3.21017 193.376 4.23835 193.64 4.44649C193.845 4.57928 194.634 2.69376 195.562 -0.300498C196.735 -4.00756 198.44 -6.24201 199.539 -5.52827C199.718 -5.41207 199.874 -5.09278 199.928 -4.83989Z" fill="black" fill-opacity="0.1"/>
<path d="M191.98 33.4401C192.345 34.4151 191.736 35.9995 189.512 39.6557C188.262 41.7581 187.227 43.6471 187.227 43.8604C187.227 44.3784 187.592 44.1956 190.822 42.0932C192.406 41.0573 193.412 40.6003 194.112 40.6003C194.783 40.6003 195.148 40.7526 195.148 40.9964C195.148 41.9714 191.797 44.1346 188.689 45.2011C185.612 46.237 184.545 47.3948 183.723 50.655C183.113 53.062 182.504 54.1589 181.529 54.5854C179.427 55.53 179.487 54.5854 181.742 50.6245C184.149 46.3284 184.21 45.8104 182.778 39.8386C181.773 35.6034 181.834 34.5065 183.052 34.994C183.692 35.2378 184.088 36.3956 184.484 39.2292C184.941 42.3675 185.094 43.0378 185.429 43.0378C185.581 43.0378 185.703 42.9159 185.703 42.7331C185.703 42.5807 186.526 40.7221 187.562 38.6503C189.877 33.9276 191.462 32.069 191.98 33.4401Z" fill="black" fill-opacity="0.1"/>
<path d="M163.743 48.7031C164.213 49.527 164.166 51.5461 163.599 55.8841C163.327 57.7905 163.182 59.4128 163.228 59.4856C163.267 59.5882 164.211 58.5821 165.318 57.2691C167.114 55.1114 168.964 53.6842 169.707 53.851C170.807 54.0978 167.196 58.5023 163.777 61.0764C162.194 62.2827 161.994 63.1746 162.447 66.5861C162.86 69.6141 162.583 71.2692 161.649 71.8093C161.285 72.0399 160.823 72.1546 160.644 72.1146C160.228 72.0212 160.084 69.7406 160.199 65.3322C160.279 63.4453 160.233 61.5615 160.095 61.0622C159.882 60.2025 158.617 58.3261 156.28 55.2412C154.998 53.5796 154.93 52.9086 156.015 52.5274C156.55 52.3666 156.946 52.8301 158.856 56.0066C160.081 58.0614 161.142 59.7358 161.231 59.7558C161.321 59.7758 161.347 58.1268 161.305 56.0876C161.256 54.0782 161.357 51.5403 161.591 50.4998C161.891 48.8811 162.054 48.574 162.669 48.3374C163.291 48.0709 163.433 48.134 163.743 48.7031Z" fill="black" fill-opacity="0.1"/>
<path d="M181.556 71.6553C182.301 72.0966 182.252 73.7367 181.403 78.4263C180.951 80.8297 180.728 82.7928 180.882 82.7692C181.046 82.7741 182.101 81.5775 183.176 80.0816C184.745 77.9835 185.428 77.2795 186.258 76.9762C187.002 76.7043 187.359 76.7037 187.474 77.0185C187.704 77.6481 185.397 80.5673 182.881 82.9143C180.214 85.3812 179.558 86.6916 179.646 89.417C179.679 90.5727 179.645 92.0774 179.586 92.7152C179.432 94.0691 178.768 95.4472 178.442 95.1771C177.663 94.5536 177.513 88.9962 178.23 86.4309C178.623 85.022 178.396 84.4887 175.581 80.4246C172.684 76.2279 172.642 76.1135 173.501 75.7997C174.417 75.465 175.134 76.2734 176.547 79.1631C177.806 81.7199 178.338 82.4662 178.739 82.3197C178.882 82.2674 178.986 82.197 178.965 82.1398C178.954 82.1111 179.045 80.2289 179.192 77.9692C179.504 72.6973 180.193 70.8558 181.556 71.6553Z" fill="black" fill-opacity="0.1"/>
<path d="M161.738 89.9024C161.624 91.3636 161.163 93.1333 159.941 96.6663C159.293 98.5496 158.827 100.115 158.937 100.167C159.048 100.219 160.04 99.5399 161.122 98.6681C163.274 96.9522 165.455 95.8217 166.116 96.1325C166.751 96.4304 165.871 97.229 162.593 99.1907C157.88 102.06 158.21 101.643 156.749 107.049C155.777 110.767 155.114 112.037 154.199 111.978C153.42 111.916 153.462 111.397 154.522 106.273C155.633 101.039 155.582 100.072 153.998 96.6356C151.923 92.0933 151.984 92.3236 152.63 92.0214C153.627 91.547 154.242 92.1725 154.894 94.2964C155.249 95.4053 155.782 97.1368 156.093 98.1242C156.403 99.1115 156.736 99.9075 156.831 99.8507C156.952 99.8068 157.384 97.9561 157.779 95.7519C158.215 93.533 158.758 91.2298 159.043 90.623C159.975 88.6373 161.885 88.1541 161.738 89.9024Z" fill="black" fill-opacity="0.1"/>
<path d="M177.182 112.187C178.218 112.583 177.456 114.624 174.501 119.53C173.313 121.449 172.429 123.064 172.49 123.155C172.581 123.216 174.105 122.516 175.902 121.571C178.249 120.322 179.406 119.895 180.107 119.956L181.082 120.048L180.168 120.901C179.65 121.358 178.279 122.089 177.121 122.546C175.933 123.003 174.592 123.643 174.074 123.978C172.094 125.349 169.474 128.975 168.224 132.144C167.798 133.302 167.341 134.216 167.219 134.216C166.823 134.216 166 133.119 166 132.57C166 132.296 166.67 130.742 167.524 129.158C168.956 126.446 169.047 126.111 169.047 124.07C169.047 122.729 168.742 120.748 168.285 119.012C167.463 115.904 167.341 114.563 167.828 114.259C168.377 113.923 169.26 114.411 169.626 115.264C169.961 115.934 170.479 119.834 170.57 122.028C170.601 122.912 171.393 121.449 172.734 118.128C174.166 114.502 175.141 112.766 176.024 112.278C176.359 112.126 176.664 111.973 176.725 112.004C176.786 112.004 176.999 112.095 177.182 112.187Z" fill="black" fill-opacity="0.1"/>
<path d="M150.842 123.104C150.647 124.087 149.393 125.894 147.56 127.781C146.555 128.814 145.539 129.982 145.305 130.375C144.931 131.003 144.978 131.102 145.496 131.127C145.836 131.152 147.448 130.587 149.097 129.903C151.973 128.708 152.725 128.695 152.504 129.84C152.464 130.206 151.227 130.675 148.637 131.331C146.575 131.876 144.555 132.587 144.159 132.954C143.752 133.28 142.466 134.783 141.238 136.25C138.953 139.074 137.811 139.919 137.75 138.89C137.723 138.519 138.466 137.153 139.989 134.833L142.309 131.356L142.009 129.121C141.725 126.681 141.975 123.284 142.512 122.681C143.064 122.053 143.504 124.052 143.434 126.848C143.417 128.186 143.468 129.351 143.594 129.497C143.694 129.627 144.819 128.453 146.125 126.855C148.639 123.707 149.993 122.386 150.558 122.51C150.746 122.551 150.878 122.806 150.842 123.104Z" fill="black" fill-opacity="0.1"/>
<path d="M160.421 143.609C161 144.675 160.36 145.833 157.618 148.667C156.155 150.19 154.936 151.531 154.936 151.653C154.936 151.958 156.429 151.653 158.806 150.891C161.121 150.129 162.401 150.221 162.401 151.074C162.401 151.622 161.975 151.744 158.532 152.323C154.175 153.054 153.108 153.542 151.646 155.492C149.757 158.082 148.934 158.996 148.142 159.422C146.1 160.519 146.923 158.325 149.604 155.522C150.823 154.243 151.92 152.872 152.042 152.475C152.164 152.049 152.285 150.008 152.316 147.905C152.346 145.62 152.499 143.822 152.712 143.457C153.047 142.878 153.108 142.939 153.565 144.005C153.961 144.98 153.992 145.65 153.778 147.966C153.626 149.52 153.535 150.8 153.565 150.861C153.596 150.891 154.936 149.154 156.551 146.961C158.166 144.797 159.628 143 159.781 143C159.964 143 160.238 143.274 160.421 143.609Z" fill="black" fill-opacity="0.1"/>
<path d="M130.345 153.536C130.311 154.733 129.3 156.977 127.626 159.533C125.863 162.285 125.937 163.006 127.856 161.665C128.571 161.177 129.834 160.342 130.713 159.838C132.101 159.008 132.369 158.96 133.077 159.36L133.856 159.843L130.427 161.565C128.552 162.537 126.769 163.632 126.464 164.018C126.16 164.405 125.191 166.184 124.298 167.923C122.622 171.24 121.676 172.296 121.033 171.567C120.581 171.052 121.032 169.629 122.746 166.29C123.486 164.856 124.097 163.321 124.109 162.848C124.142 162.413 123.752 160.933 123.223 159.602C122.35 157.28 121.794 154.639 122.105 154.445C122.589 154.206 123.453 156.017 124.026 158.6C124.402 160.235 124.809 161.657 124.9 161.779C125.021 161.91 125.275 161.477 125.465 160.834C125.964 159.138 127.638 155.502 128.66 153.866C129.619 152.338 130.394 152.185 130.345 153.536Z" fill="black" fill-opacity="0.1"/>
<path d="M141.535 178.496C142.524 179.26 141.931 180.626 138.748 185.028C137.706 186.482 136.912 187.721 137.011 187.769C137.113 187.848 138.287 187.422 139.623 186.82C142.121 185.701 143.711 185.405 144.004 186.013C144.293 186.59 143.165 187.134 139.955 187.976C135.737 189.1 135.145 189.514 133.617 192.689C132.742 194.491 132.042 195.502 131.39 195.924C130.851 196.269 130.296 196.494 130.19 196.385C129.784 196.099 130.497 194.226 131.767 192.158C133.493 189.326 133.702 188.562 133.648 185.743C133.585 182.372 133.771 180.229 134.199 179.498C134.522 178.904 134.557 178.93 134.997 179.734C135.397 180.45 135.41 181.032 135.159 183.153C134.96 184.715 134.96 185.913 135.162 186.286C135.447 186.833 135.733 186.428 137.469 183.195C139.528 179.368 140.785 177.917 141.535 178.496Z" fill="black" fill-opacity="0.1"/>
<path d="M110.882 192.127C110.882 192.797 110.272 194.717 109.48 196.636C107.622 201.146 107.652 201.115 108.322 200.841C108.657 200.75 109.968 199.897 111.278 199.013C113.715 197.368 114.081 197.215 114.812 197.672C115.452 198.068 115.086 198.404 112.04 200.171C108.231 202.395 106.311 204.315 105.58 206.691C105.275 207.697 104.757 209.19 104.392 210.012L103.782 211.475L103.325 210.652C102.807 209.647 103.021 208.336 104.057 205.96C105.306 203.218 105.306 201.633 104.179 198.83C103.021 195.936 102.655 193.62 103.356 193.346C104.087 193.072 104.483 193.803 105.428 197.276C105.885 199.074 106.342 200.597 106.433 200.658C106.494 200.75 106.707 199.988 106.921 199.013C107.987 193.65 109.084 191 110.303 191C110.76 191 110.882 191.213 110.882 192.127Z" fill="black" fill-opacity="0.1"/>
<path d="M120.079 213.114C120.89 213.405 121.31 214.723 121.404 217.206C121.442 218.502 121.58 219.65 121.673 219.775C121.78 219.859 122.406 218.687 123.067 217.162C125.052 212.587 126.542 210.603 127.509 211.225C128.006 211.563 126.746 214.819 124.991 217.669C124.07 219.216 123.318 220.548 123.37 220.658C123.422 220.768 124.947 220.217 126.724 219.412C129.849 218.038 130.027 217.988 130.37 218.5C130.87 219.274 129.778 219.958 126.305 221.025C123.024 222.068 122.386 222.571 121.42 224.88C121.058 225.826 120.208 227.238 119.536 228.027C118.527 229.244 118.223 229.455 117.474 229.438L116.574 229.459L117.041 228.665C118.116 226.945 119.253 224.286 119.56 222.793C119.729 221.938 119.746 219.404 119.592 217.151C119.411 214.912 119.344 213.057 119.427 213.018C119.537 212.966 119.795 213.013 120.079 213.114Z" fill="black" fill-opacity="0.1"/>
<path d="M111.104 249.841C111.461 250.275 112.265 251.522 112.938 252.59C113.569 253.663 114.37 254.715 114.72 254.911C115.304 255.252 115.329 254.924 115.049 251.572C114.889 249.551 114.822 247.411 114.877 246.796C115.12 244.704 116.479 244.104 116.937 245.893C117.067 246.419 117.048 248.571 116.914 250.671C116.762 252.795 116.711 254.689 116.775 254.855C116.844 255.064 117.653 254.227 118.929 252.595C120.956 250.002 121.593 249.534 122.29 250.078C122.53 250.266 121.864 251.215 119.588 254.077C116.237 258.264 116.496 257.537 116.502 262.377C116.505 265.242 116.024 266.451 115.184 265.794C114.536 265.287 114.428 263.694 114.804 260.74C115.246 257.256 115.118 256.925 112.076 253.347C110.957 252.008 110.088 250.052 110.352 249.369C110.43 249.12 110.664 249.265 111.104 249.841Z" fill="black" fill-opacity="0.1"/>
<path d="M88.9029 236.165C89.2598 236.599 90.0637 237.847 90.7371 238.914C91.3676 239.988 92.1693 241.04 92.5189 241.236C93.1032 241.577 93.1281 241.248 92.8481 237.896C92.6876 235.876 92.6209 233.735 92.6759 233.121C92.9191 231.029 94.2781 230.428 94.7359 232.217C94.8655 232.744 94.8466 234.895 94.713 236.995C94.5606 239.119 94.5103 241.014 94.574 241.18C94.643 241.388 95.4521 240.551 96.7283 238.919C98.7552 236.327 99.3924 235.858 100.088 236.402C100.329 236.59 99.6634 237.54 97.3873 240.401C94.0362 244.588 94.2946 243.862 94.3009 248.702C94.3043 251.566 93.8229 252.776 92.9828 252.119C92.3347 251.612 92.2265 250.019 92.6029 247.064C93.0447 243.581 92.9173 243.249 89.8746 239.671C88.7557 238.332 87.8869 236.377 88.1505 235.693C88.2286 235.445 88.4634 235.59 88.9029 236.165Z" fill="black" fill-opacity="0.1"/>
<path d="M95.2705 272.866C96.021 273.619 96.7271 276.144 96.9645 279.105C97.0786 280.572 97.2138 281.903 97.2784 282.107C97.509 282.833 98.0717 281.887 99.0536 279.241C100.026 276.566 100.8 275.681 101.462 276.558C101.813 276.958 101.439 278.196 99.9551 281.576C98.6603 284.545 98.3176 286.284 98.366 289.657L98.3923 292.558L97.3951 288.815L96.398 285.072L93.6697 283.125C92.1816 282.063 90.5906 280.778 90.1355 280.251C89.2808 279.372 89.0728 278.415 89.6535 278.231C90.0601 278.102 92.2909 279.791 94.0004 281.549C94.8169 282.409 95.5688 283.065 95.685 283.028C95.7721 283.001 95.6341 281.862 95.297 280.498C94.5266 277.066 94.143 273.544 94.4891 272.922C94.7269 272.463 94.8523 272.455 95.2705 272.866Z" fill="black" fill-opacity="0.1"/>
<path d="M115.139 280.779C116.342 280.528 117.633 283.397 118.219 287.518C118.685 290.894 118.931 290.804 120.211 286.81C121.126 284.005 121.784 283.2 122.64 283.783C122.968 284.006 123.193 284.27 123.108 284.396C123.039 284.496 122.298 286.019 121.478 287.82C119.58 291.909 119.38 293.284 120.412 295.829C121.286 298.119 121.455 299.008 121.157 300.206C120.998 300.872 120.895 301.023 120.643 300.851C120.14 300.508 119.1 297.921 118.555 295.634C118.296 294.499 117.817 293.252 117.568 292.861C117.275 292.478 115.522 291.101 113.658 289.832C110.56 287.724 110.292 287.468 110.625 287.141C111.401 286.38 112.656 286.865 114.775 288.786C116.644 290.427 117.502 290.9 117.172 290.085C116.281 287.821 114.666 282.557 114.655 281.923C114.638 281.027 114.733 280.834 115.139 280.779Z" fill="black" fill-opacity="0.1"/>
<path d="M126.78 317.899C127.312 318.526 128.364 320.471 129.161 322.352C129.943 324.166 130.662 325.674 130.772 325.661C130.857 325.668 131.061 324.496 131.247 323.019C131.409 321.563 131.684 320.05 131.825 319.651C132.203 318.731 132.891 318.506 133.404 319.11C133.68 319.435 133.569 320.528 133.019 322.753C132.052 326.652 131.705 328.785 132 329.414C134.555 334.919 134.87 336.091 133.936 336.403C133.135 336.684 132.145 335.046 131.356 331.999C130.989 330.672 130.414 329.242 130.02 328.777C129.606 328.289 128.1 327.41 126.098 326.511C123.074 325.162 121.503 324.017 121.991 323.603C122.455 323.209 124.303 323.878 126.438 325.263C127.67 326.056 128.767 326.643 128.86 326.564C128.953 326.485 128.269 325.067 127.368 323.394C125.429 319.885 124.722 317.687 125.372 317.135C125.744 316.82 125.971 316.946 126.78 317.899Z" fill="black" fill-opacity="0.1"/>
<path d="M105.54 311.553C106.345 312.238 107.917 315.277 108.622 317.639C109.345 319.905 109.457 320.043 109.811 319.07C109.958 318.587 110.238 317.316 110.42 316.213C110.791 313.852 111.317 312.792 112.102 312.681C113.007 312.552 112.955 313.482 111.811 317.338C110.568 321.578 110.628 322.646 112.389 325.72C113.745 328.112 113.986 328.939 113.473 329.874C113.162 330.503 113.098 330.481 112.503 329.55C112.18 329.011 111.509 327.538 111.087 326.305C109.938 323.206 108.93 322.18 105.294 320.421C103.606 319.584 101.87 318.631 101.456 318.32C100.694 317.721 100.689 317.691 101.263 317.609C101.866 317.523 103.21 318.101 106.437 319.796C107.337 320.284 108.091 320.607 108.143 320.538C108.194 320.469 107.514 319.151 106.614 317.586C104.19 313.315 103.747 312.147 104.264 311.458C104.652 310.941 104.743 310.928 105.54 311.553Z" fill="black" fill-opacity="0.1"/>
<path d="M146.416 344.842C147.586 344.97 149.387 346.459 151.74 349.196C152.743 350.371 153.627 351.312 153.695 351.313C153.75 351.273 153.621 350.004 153.388 348.474C152.932 345.523 153.003 344.529 153.722 343.941C154.109 343.593 154.189 343.704 154.391 344.702C154.503 345.344 154.705 347.133 154.815 348.702C155.089 352.727 155.273 353.098 158.07 355.379C161.23 357.953 161.944 359.286 160.357 359.628C159.619 359.793 158.478 358.752 156.356 356.032C155.488 354.927 154.579 353.904 154.308 353.763C154.038 353.622 152.269 353.457 150.362 353.425C148.469 353.366 146.346 353.154 145.682 352.911L144.463 352.482L145.723 352.108C146.435 351.929 147.839 351.87 148.873 351.997C149.934 352.137 151.199 352.28 151.771 352.304C152.696 352.373 152.737 352.36 152.352 351.782C152.112 351.451 150.863 350.353 149.503 349.336C146.044 346.744 144.607 344.621 146.416 344.842Z" fill="black" fill-opacity="0.1"/>
<path d="M122.107 349.617C123.167 349.982 124.079 350.841 126.509 353.755L128.712 356.376L128.608 355.152C128.561 354.486 128.342 353.047 128.159 351.935C127.689 349.386 127.789 348.606 128.644 348.458C129.484 348.283 129.623 348.865 129.941 353.191C130.32 357.76 130.497 358.219 133.252 360.578C135.811 362.766 136.209 363.313 135.865 364.155C135.648 364.652 135.499 364.697 134.796 364.418C134.34 364.213 133.487 363.461 132.864 362.689C132.229 361.957 131.296 360.799 130.76 360.187C129.488 358.657 127.835 358.092 124.74 358.06C122.408 358.033 119.679 357.459 119.83 357.032C119.927 356.634 122.614 356.678 125.106 357.068C126.544 357.298 127.721 357.428 127.745 357.345C127.758 357.304 126.44 356.075 124.818 354.664C121.698 351.947 120.394 350.227 121.059 349.662C121.259 349.52 121.748 349.464 122.107 349.617Z" fill="black" fill-opacity="0.1"/>
<path d="M153.869 370.956C154.384 371.031 156.45 371.891 158.507 372.955C161.208 374.304 162.242 374.7 162.295 374.416C162.303 374.212 161.867 373.172 161.295 372.126C159.848 369.45 159.424 366.746 160.572 367.379C161.025 367.629 162.653 370.926 163.489 373.196C164.311 375.492 165.127 376.221 169.028 378.231C170.831 379.19 172.284 380.026 172.225 380.132C172.166 380.239 171.67 380.383 171.134 380.47C170.256 380.612 169.731 380.428 167.276 379.075C163.781 377.148 162.762 377.04 159.241 378.126C156.853 378.862 154.007 379.103 154.301 378.569C154.727 377.795 155.96 377.326 158.081 377.138C160.462 376.92 162.26 376.31 161.592 375.943C161.406 375.84 160.129 375.379 158.757 374.902C155.77 373.882 153.941 372.909 153.242 371.967C152.609 371.096 152.771 370.803 153.869 370.956Z" fill="black" fill-opacity="0.1"/>
<path d="M181.869 389.956C182.384 390.031 184.45 390.891 186.507 391.955C189.208 393.304 190.242 393.7 190.294 393.416C190.303 393.212 189.867 392.172 189.295 391.126C187.848 388.45 187.424 385.746 188.572 386.379C189.025 386.629 190.652 389.926 191.489 392.196C192.311 394.492 193.127 395.221 197.028 397.231C198.831 398.19 200.284 399.026 200.225 399.132C200.166 399.239 199.67 399.383 199.134 399.47C198.256 399.613 197.731 399.428 195.276 398.075C191.781 396.149 190.762 396.04 187.241 397.126C184.853 397.862 182.006 398.103 182.301 397.569C182.727 396.795 183.959 396.326 186.081 396.138C188.462 395.92 190.259 395.31 189.592 394.943C189.406 394.84 188.129 394.379 186.757 393.902C183.77 392.882 181.941 391.909 181.242 390.967C180.609 390.096 180.771 389.803 181.869 389.956Z" fill="black" fill-opacity="0.1"/>
<path d="M180.519 360.886C181.025 360.851 182.678 363.154 184.447 366.321C185.263 367.744 186.021 368.893 186.146 368.857C186.27 368.821 186.44 367.628 186.527 366.145C186.723 362.948 187.178 361.807 188.037 362.141C188.722 362.414 188.676 363.572 187.835 366.865C186.897 370.523 187.024 371.429 188.837 374.515C190.626 377.519 191.042 378.722 190.475 379.244C189.587 379.972 187.605 377.698 187.165 375.403C187.111 375.059 186.762 374.241 186.405 373.627C185.833 372.581 185.489 372.322 181.539 370.145C178.577 368.513 177.314 367.712 177.366 367.428C177.488 366.765 179.63 367.423 181.703 368.774C184.919 370.894 185.148 370.603 182.755 367.371C181.616 365.839 180.423 363.964 180.139 363.216C179.632 361.928 179.794 360.939 180.519 360.886Z" fill="black" fill-opacity="0.1"/>
</g>
<defs>
<clipPath id="clip0_16_283">
<rect width="195" height="435" fill="white" transform="matrix(-1 0 0 1 195 0)"/>
</clipPath>
</defs>
</svg>
